<svg xmlns="http://www.w3.org/2000/svg" viewBox="0 0 714.99 314.48"><defs><style>.cls-1{fill:#dad9d9;}.cls-2{fill:none;}.cls-3{fill:#0b78be;}</style></defs><g id="Layer_2" data-name="Layer 2"><g id="Layer_1-2" data-name="Layer 1"><path class="cls-1" d="M44,293.22v20.92h-2.7V293.22Z"/><path class="cls-1" d="M52.28,295.52H45.92v-2.3H61.41v2.3H55v18.62H52.28Z"/><path class="cls-1" d="M84.06,313.46a13.39,13.39,0,0,1-5.53,1c-5.89,0-10.33-3.72-10.33-10.58,0-6.55,4.44-11,10.92-11a11.25,11.25,0,0,1,5,.93L83.44,296a9.83,9.83,0,0,0-4.22-.87c-4.91,0-8.17,3.13-8.17,8.63,0,5.12,3,8.41,8,8.41a10.78,10.78,0,0,0,4.41-.87Z"/><path class="cls-1" d="M104.23,303.47c0,7.2-4.38,11-9.71,11-5.53,0-9.41-4.28-9.41-10.61,0-6.64,4.13-11,9.72-11S104.23,297.26,104.23,303.47ZM88,303.81c0,4.47,2.42,8.47,6.67,8.47s6.7-3.94,6.7-8.69c0-4.16-2.17-8.5-6.67-8.5S88,299.21,88,303.81Z"/><path class="cls-1" d="M107.3,314.14V293.22h3l6.7,10.59a60.57,60.57,0,0,1,3.76,6.79l.06,0c-.25-2.79-.31-5.34-.31-8.59v-8.76H123v20.92h-2.73l-6.64-10.61a65.11,65.11,0,0,1-3.91-7l-.09,0c.15,2.63.21,5.15.21,8.62v8.94Z"/><path class="cls-1" d="M126.91,310.85a9.52,9.52,0,0,0,4.84,1.37c2.76,0,4.38-1.46,4.38-3.57,0-2-1.12-3.07-3.95-4.16-3.41-1.21-5.52-3-5.52-5.93,0-3.26,2.7-5.68,6.77-5.68a9.45,9.45,0,0,1,4.62,1l-.74,2.2a8.4,8.4,0,0,0-4-1c-2.85,0-3.94,1.7-3.94,3.13,0,2,1.27,2.92,4.16,4,3.54,1.36,5.34,3.07,5.34,6.14,0,3.23-2.39,6-7.33,6a10.83,10.83,0,0,1-5.33-1.33Z"/><path class="cls-1" d="M144.84,293.22v12.39c0,4.68,2.08,6.67,4.88,6.67,3.1,0,5.09-2,5.09-6.67V293.22h2.73v12.2c0,6.43-3.38,9.06-7.92,9.06-4.28,0-7.51-2.45-7.51-8.93V293.22Z"/><path class="cls-1" d="M161.79,293.22h2.7v18.66h8.93v2.26H161.79Z"/><path class="cls-1" d="M177.24,295.52h-6.36v-2.3h15.48v2.3H180v18.62h-2.73Z"/><path class="cls-1" d="M191,293.22v20.92h-2.7V293.22Z"/><path class="cls-1" d="M195.24,314.14V293.22h2.94l6.71,10.59a58.83,58.83,0,0,1,3.75,6.79l.07,0c-.25-2.79-.31-5.34-.31-8.59v-8.76h2.54v20.92h-2.73l-6.64-10.61a65.11,65.11,0,0,1-3.91-7l-.1,0c.16,2.63.22,5.15.22,8.62v8.94Z"/><path class="cls-1" d="M231.14,313.21a19.33,19.33,0,0,1-6.42,1.15A9.82,9.82,0,0,1,214,303.81c0-6.24,4.31-10.8,11.33-10.8a12.82,12.82,0,0,1,5.21,1l-.65,2.2a11,11,0,0,0-4.63-.9c-5.09,0-8.41,3.17-8.41,8.41s3.2,8.44,8.07,8.44a8.84,8.84,0,0,0,3.6-.55v-6.24h-4.25v-2.18h6.89Z"/><path class="cls-1" d="M247.21,304.74v2h-7.66v-2Z"/><path class="cls-1" d="M258.91,295.52h-6.36v-2.3H268v2.3h-6.39v18.62h-2.73Z"/><path class="cls-1" d="M272.63,293.22V302h10.11v-8.76h2.74v20.92h-2.74v-9.81H272.63v9.81h-2.7V293.22Z"/><path class="cls-1" d="M300.55,304.33h-8.13v7.55h9.06v2.26H289.72V293.22H301v2.27h-8.6v6.61h8.13Z"/><path class="cls-1" d="M313,314.14l-5.31-20.92h2.85L313,303.81c.62,2.6,1.18,5.21,1.55,7.23h.06c.34-2.08,1-4.56,1.71-7.26l2.79-10.56H322l2.54,10.62c.59,2.48,1.15,5,1.46,7.17H326c.44-2.3,1-4.63,1.68-7.23l2.76-10.56h2.76l-5.93,20.92h-2.82l-2.64-10.89a63.53,63.53,0,0,1-1.36-6.83h-.07a63.61,63.61,0,0,1-1.61,6.83l-3,10.89Z"/><path class="cls-1" d="M337,307.56l-2.17,6.58h-2.79l7.1-20.92h3.26l7.14,20.92h-2.88l-2.24-6.58Zm6.86-2.11-2.05-6c-.46-1.37-.77-2.61-1.08-3.82h-.06c-.31,1.24-.66,2.52-1.06,3.79l-2.05,6.05Z"/><path class="cls-1" d="M354.39,314.14v-8.87l-6.61-12h3.07L353.8,299c.81,1.58,1.43,2.85,2.08,4.31h.06c.59-1.37,1.31-2.73,2.11-4.31l3-5.78h3.08l-7,12v8.91Z"/><path class="cls-1" d="M374.93,293.22v20.92h-2.7V293.22Z"/><path class="cls-1" d="M383.19,295.52h-6.37v-2.3h15.49v2.3h-6.39v18.62h-2.73Z"/><path class="cls-1" d="M400,310.85a9.52,9.52,0,0,0,4.84,1.37c2.77,0,4.38-1.46,4.38-3.57,0-2-1.12-3.07-3.94-4.16-3.42-1.21-5.53-3-5.53-5.93,0-3.26,2.7-5.68,6.77-5.68a9.45,9.45,0,0,1,4.62,1l-.74,2.2a8.36,8.36,0,0,0-4-1c-2.86,0-3.94,1.7-3.94,3.13,0,2,1.27,2.92,4.15,4,3.54,1.36,5.34,3.07,5.34,6.14,0,3.23-2.39,6-7.32,6a10.87,10.87,0,0,1-5.34-1.33Z"/><path class="cls-1" d="M417.91,293.22V302H428v-8.76h2.73v20.92H428v-9.81H417.91v9.81h-2.7V293.22Z"/><path class="cls-1" d="M452.88,303.47c0,7.2-4.37,11-9.71,11-5.53,0-9.41-4.28-9.41-10.61,0-6.64,4.13-11,9.72-11S452.88,297.26,452.88,303.47Zm-16.23.34c0,4.47,2.42,8.47,6.67,8.47s6.71-3.94,6.71-8.69c0-4.16-2.18-8.5-6.68-8.5S436.65,299.21,436.65,303.81Z"/><path class="cls-1" d="M458.65,293.22v12.39c0,4.68,2.08,6.67,4.87,6.67,3.11,0,5.09-2,5.09-6.67V293.22h2.73v12.2c0,6.43-3.38,9.06-7.91,9.06-4.28,0-7.51-2.45-7.51-8.93V293.22Z"/><path class="cls-1" d="M475.59,293.22h2.7v18.66h8.94v2.26H475.59Z"/><path class="cls-1" d="M489.8,293.5a38.57,38.57,0,0,1,5.75-.43c3.88,0,6.64.9,8.47,2.61a9.62,9.62,0,0,1,3,7.51,11.1,11.1,0,0,1-3,8.13c-2,1.95-5.19,3-9.25,3a44.91,44.91,0,0,1-4.91-.25Zm2.7,18.5a17.56,17.56,0,0,0,2.73.16c5.78,0,8.91-3.23,8.91-8.88,0-4.94-2.76-8.07-8.47-8.07a15.07,15.07,0,0,0-3.17.28Z"/><path class="cls-1" d="M516.18,293.5a26,26,0,0,1,4.93-.43c2.7,0,4.44.46,5.74,1.52a4.38,4.38,0,0,1,1.74,3.69,5,5,0,0,1-3.53,4.6v.06a5.39,5.39,0,0,1,4.31,5.24,5.65,5.65,0,0,1-1.77,4.19c-1.46,1.34-3.82,2-7.23,2a32.26,32.26,0,0,1-4.19-.25Zm2.7,8.57h2.45c2.86,0,4.53-1.49,4.53-3.51,0-2.45-1.86-3.41-4.59-3.41a12,12,0,0,0-2.39.18Zm0,10a13.47,13.47,0,0,0,2.26.13c2.8,0,5.37-1,5.37-4.07,0-2.85-2.45-4-5.4-4h-2.23Z"/><path class="cls-1" d="M543.39,304.33h-8.13v7.55h9.06v2.26H532.56V293.22h11.3v2.27h-8.6v6.61h8.13Z"/><path class="cls-2" d="M419.08,208.3c0-5.56.56-10.91-.27-16-.34-2.12-3.63-5.31-5.64-5.37-16.92-.43-33.85-.25-50.77-.23-1.34,0-6,4.16-6,5.47-.05,5.34,0,10.68,0,16.15Z"/><path class="cls-2" d="M530.9,188.88c-2-.74-3.94-2.13-5.95-2.15-15.82-.18-31.65-.11-47.47-.1-3.18,0-7,3.9-7,7.14v50.38c0,3.44,1.61,5.07,5,5.08h49.78c3.59,0,7.84-3.77,7.87-7.25.09-9,.38-18-.07-27C532.66,206.28,535.36,197.28,530.9,188.88Z"/><path class="cls-2" d="M190.87,208.3c0-5.53,0-10.88,0-16.23,0-1.44-4.84-5.36-6.4-5.36-6.59,0-13.18,0-19.77,0-5.93,0-11.87-.14-17.79,0-5.57.17-11.42-1.44-16,2.15-4.63,6.18-1.94,12.86-2.8,19.41Z"/><path class="cls-3" d="M419.09,234.3c0,2.57,0,5.52,0,8.48,0,2.3-4.06,6.44-6.34,6.44q-25,0-50.1,0c-1.33,0-6.18-4-6.2-5.24-.07-5.88,0-11.76,0-17.68h80.46c0-13.49,0-26.32,0-39.15a3.48,3.48,0,0,0-.3-1.58c-1.19-2.22-2.17-4.62-3.75-6.54a62.48,62.48,0,0,0-6.5-6.19,8.68,8.68,0,0,0-2.05-1.38c-1.9-.91-3.84-2.46-5.78-2.48-20.33-.18-40.65-.12-61-.09a5.1,5.1,0,0,0-2.31.64c-1.89,1-3.72,2.16-5.54,3.29a15.06,15.06,0,0,0-3.76,2.63,37.34,37.34,0,0,0-3.78,5.86c-1.26,2.28-3.31,4.65-3.34,7-.26,20.41-.22,40.82,0,61.23,0,2.23,1.38,4.45,2.16,6.66,0,.13.41.1.55.23,2.49,2.24,5.07,4.37,7.39,6.76,2.11,2.17,4.6,3.71,7.5,3.73,19.67.12,39.34,0,59,.12,4.88,0,9.11-.82,12.34-4.73,2.37-2.88,4.84-5.67,7.14-8.6.87-1.09,1.91-2.45,2-3.72.22-5.44.09-10.89.09-15.7Zm-62.66-42.15c0-1.31,4.63-5.47,6-5.47,16.92,0,33.85-.2,50.77.23,2,.06,5.3,3.25,5.64,5.37.83,5.11.27,10.46.27,16H356.41C356.41,202.83,356.38,197.49,356.43,192.15Z"/><path class="cls-3" d="M191.34,233.3c-.22.53-.35.6-.36.69,0,3-.06,5.92-.11,8.88,0,2.3-4.11,6.35-6.43,6.35q-24.88,0-49.78,0c-1.34,0-6.38-3.72-6.4-5-.1-6,0-12,0-17.92h80.12a12.82,12.82,0,0,0,.29-1.38q0-19.75,0-39.51a3,3,0,0,0-.2-1.59,48,48,0,0,0-5.22-7.09c-1.67-1.67-4-2.65-6.09-3.93a10.58,10.58,0,0,0-1-.68c-2.4-1.1-4.79-3.07-7.21-3.11-16.15-.28-32.31-.33-48.46,0-4.42.08-9-1.64-13.54,1.53-1.57,1.09-4.23,1.55-6.09,3.1-.93.77-2.47.93-3.19,1.81-1.39,1.71-2.05,4.11-3.63,5.55a11.46,11.46,0,0,0-3.39,8c-.44,20-.26,39.94-.24,59.91a4.61,4.61,0,0,0,.41,2.16c1.11,1.93,2.33,3.81,3.56,5.66a13.6,13.6,0,0,0,2.33,3c2.1,1.79,4.15,3.92,6.62,4.92s4.49,2.55,7.59,2.51c20-.29,40-.08,60-.25,2.34,0,4.67-1.4,7-2.18.11,0,.06-.45.19-.59,1.42-1.47,2.78-3,4.34-4.36,2.76-2.36,5.45-5.39,5.94-8.57.9-5.74.26-11.72.26-17.89Zm-60.45-44.41c4.57-3.59,10.42-2,16-2.15,5.92-.18,11.86,0,17.79,0,6.59,0,13.18,0,19.77,0,1.56,0,6.38,3.92,6.4,5.36.07,5.35,0,10.7,0,16.23H128.09C129,201.75,126.26,195.07,130.89,188.89Z"/><path class="cls-3" d="M549.24,184.66a28,28,0,0,0-5.08-8.55c-1.29-1.54-3.89-2-5.25-3.5a11.54,11.54,0,0,0-8.27-3.5c-19.66-.44-39.33-.25-59-.23a4.49,4.49,0,0,0-2.22.34c-1.72,1.08-3.16,2.92-5,3.45-6.12,1.75-8.68,7-11.47,11.65-1.44,2.41-1.45,5.89-1.47,8.88-.13,17.12-.07,34.24-.05,51.36,0,.85-.09,2.06.4,2.49,2,1.81-.26,5,2.76,6.83,1.54.91,1.71,4,2.86,5.83.57.93,1.95,1.37,3,2A13.57,13.57,0,0,1,463,263.3c1,1,5.9,3.69,7.25,3.69h31c10.32,0,20.65,0,31,0a6.11,6.11,0,0,0,2.89-.73c1.62-.93,3-2.64,4.65-3.07,3.59-.91,9.67-7.47,9.31-11.6a5,5,0,0,1,.39-2.19c.44-1.11,1.48-2.15,1.49-3.23.11-10.43.5-20.88-.06-31.27C550.31,204.83,552.9,194.71,549.24,184.66ZM533.09,215c.45,9,.16,18,.07,27,0,3.48-4.28,7.25-7.87,7.25H475.51c-3.39,0-5-1.64-5-5.08V193.77c0-3.24,3.79-7.14,7-7.14,15.82,0,31.65-.08,47.47.1,2,0,4,1.41,5.95,2.15C535.36,197.28,532.66,206.28,533.09,215Z"/><path class="cls-3" d="M322.25,185.44c-1.11-1.94-2.27-3.85-3.45-5.74a16.23,16.23,0,0,0-2.47-3.56c-2.05-1.85-4.13-3.94-6.59-5s-5-2.49-8.28-2.43c-19.35.32-38.69.13-58,.22-1.08,0-2.17.95-3.24,1.49-1.54.78-3.1,1.54-4.6,2.41a13.79,13.79,0,0,0-3.79,2.58c-1.48,1.78-2.4,4-3.82,5.84-1.86,2.41-3.48,4.8-3.47,8,0,24.59,0,49.18.5,73.77v4.25h17V194.41c0-3.5,3.73-7.29,7.18-7.29h48.76a7.08,7.08,0,0,1,7.06,7V266.3h17.76c0-26.2,0-52.65,0-79.09A3.83,3.83,0,0,0,322.25,185.44Z"/><path class="cls-3" d="M0,186.3H41v80H59v-80h41v-17H0Z"/><circle class="cls-3" cx="603.2" cy="111.8" r="19.47" transform="translate(3.13 239.34) rotate(-22.5)"/><circle class="cls-3" cx="649.14" cy="111.8" r="19.47" transform="translate(6.63 256.93) rotate(-22.5)"/><circle class="cls-3" cx="558.13" cy="111.8" r="19.47" transform="translate(-0.3 222.1) rotate(-22.5)"/><circle class="cls-3" cx="603.2" cy="158.27" r="19.47" transform="translate(-14.65 242.88) rotate(-22.5)"/><circle class="cls-1" cx="649.14" cy="158.27" r="19.47" transform="translate(-11.15 260.46) rotate(-22.5)"/><circle class="cls-1" cx="695.52" cy="111.8" r="19.47"/><circle class="cls-1" cx="649.14" cy="65.63" r="19.47" transform="translate(39.18 297.23) rotate(-26.57)"/><circle class="cls-1" cx="603.2" cy="65.63" r="19.47" transform="translate(34.33 276.69) rotate(-26.57)"/><circle class="cls-1" cx="603.2" cy="19.47" r="19.47" transform="translate(115.77 375.34) rotate(-37.98)"/><circle class="cls-1" cx="511.75" cy="111.8" r="19.47" transform="translate(-11.3 83.42) rotate(-9.22)"/><circle class="cls-3" cx="603.2" cy="204.74" r="19.47" transform="translate(-32.43 246.42) rotate(-22.5)"/></g></g></svg>